<svg width="96" height="96" viewBox="0 0 96 96" fill="none" xmlns="http://www.w3.org/2000/svg">
<rect width="96" height="96" fill="#003939"/>
<path d="M48 47.3077C48.9092 47.3077 49.8094 47.1286 50.6493 46.7807C51.4893 46.4328 52.2525 45.9228 52.8954 45.28C53.5382 44.6371 54.0482 43.8739 54.3961 43.034C54.744 42.194 54.9231 41.2938 54.9231 40.3846C54.9231 39.4755 54.744 38.5752 54.3961 37.7353C54.0482 36.8953 53.5382 36.1321 52.8954 35.4893C52.2525 34.8464 51.4893 34.3365 50.6493 33.9885C49.8094 33.6406 48.9092 33.4615 48 33.4615C47.0908 33.4615 46.1906 33.6406 45.3507 33.9885C44.5107 34.3365 43.7475 34.8464 43.1046 35.4893C42.4618 36.1321 41.9518 36.8953 41.6039 37.7353C41.256 38.5752 41.0769 39.4755 41.0769 40.3846C41.0769 41.2938 41.256 42.194 41.6039 43.034C41.9518 43.8739 42.4618 44.6371 43.1046 45.28C43.7475 45.9228 44.5107 46.4328 45.3507 46.7807C46.1906 47.1286 47.0908 47.3077 48 47.3077ZM46.2865 50.5385C40.6038 50.5385 36 55.1423 36 60.825C36 61.7712 36.7673 62.5385 37.7135 62.5385H58.2865C59.2327 62.5385 60 61.7712 60 60.825C60 55.1423 55.3962 50.5385 49.7135 50.5385H46.2865Z" fill="#8AFEFE"/>
</svg>
