<svg width="409" height="189" viewBox="0 0 409 189" fill="none" xmlns="http://www.w3.org/2000/svg">
<rect x="20.5" y="40.5" width="69" height="21" rx="10.5" stroke="white"/>
<path d="M32.8608 55V46.2727H36.1335C36.804 46.2727 37.3665 46.3977 37.821 46.6477C38.2784 46.8977 38.6236 47.2415 38.8565 47.679C39.0923 48.1136 39.2102 48.608 39.2102 49.1619C39.2102 49.7216 39.0923 50.2187 38.8565 50.6534C38.6207 51.0881 38.2727 51.4304 37.8125 51.6804C37.3523 51.9276 36.7855 52.0511 36.1122 52.0511H33.9432V50.7514H35.8991C36.2912 50.7514 36.6122 50.6832 36.8622 50.5469C37.1122 50.4105 37.2969 50.223 37.4162 49.9844C37.5384 49.7457 37.5994 49.4716 37.5994 49.1619C37.5994 48.8523 37.5384 48.5795 37.4162 48.3438C37.2969 48.108 37.1108 47.9247 36.858 47.794C36.608 47.6605 36.2855 47.5938 35.8906 47.5938H34.4418V55H32.8608ZM40.5153 55V48.4545H42.011V49.5455H42.0792C42.1985 49.1676 42.4031 48.8764 42.6928 48.6719C42.9854 48.4645 43.3192 48.3608 43.6942 48.3608C43.7795 48.3608 43.8746 48.3651 43.9798 48.3736C44.0877 48.3793 44.1772 48.3892 44.2482 48.4034V49.8224C44.1829 49.7997 44.0792 49.7798 43.9371 49.7628C43.7979 49.7429 43.663 49.733 43.5323 49.733C43.2511 49.733 42.9982 49.794 42.7738 49.9162C42.5522 50.0355 42.3775 50.2017 42.2496 50.4148C42.1218 50.6278 42.0579 50.8736 42.0579 51.152V55H40.5153ZM45.2731 55V48.4545H46.8157V55H45.2731ZM46.0487 47.5256C45.8043 47.5256 45.5941 47.4446 45.418 47.2827C45.2418 47.1179 45.1538 46.9205 45.1538 46.6903C45.1538 46.4574 45.2418 46.2599 45.418 46.098C45.5941 45.9332 45.8043 45.8509 46.0487 45.8509C46.2958 45.8509 46.506 45.9332 46.6793 46.098C46.8555 46.2599 46.9435 46.4574 46.9435 46.6903C46.9435 46.9205 46.8555 47.1179 46.6793 47.2827C46.506 47.4446 46.2958 47.5256 46.0487 47.5256ZM48.402 55V48.4545H49.8764V49.5668H49.9531C50.0895 49.1918 50.3153 48.8991 50.6307 48.6889C50.946 48.4759 51.3224 48.3693 51.7599 48.3693C52.2031 48.3693 52.5767 48.4773 52.8807 48.6932C53.1875 48.9062 53.4034 49.1974 53.5284 49.5668H53.5966C53.7415 49.2031 53.9858 48.9134 54.3295 48.6974C54.6761 48.4787 55.0866 48.3693 55.5611 48.3693C56.1634 48.3693 56.6548 48.5597 57.0355 48.9403C57.4162 49.321 57.6065 49.8764 57.6065 50.6065V55H56.0597V50.8452C56.0597 50.4389 55.9517 50.142 55.7358 49.9545C55.5199 49.7642 55.2557 49.669 54.9432 49.669C54.571 49.669 54.2798 49.7855 54.0696 50.0185C53.8622 50.2486 53.7585 50.5483 53.7585 50.9176V55H52.2457V50.7812C52.2457 50.4432 52.1435 50.1733 51.9389 49.9716C51.7372 49.7699 51.473 49.669 51.1463 49.669C50.9247 49.669 50.723 49.7259 50.5412 49.8395C50.3594 49.9503 50.2145 50.108 50.1065 50.3125C49.9986 50.5142 49.9446 50.75 49.9446 51.0199V55H48.402ZM61.055 55.1321C60.6403 55.1321 60.2667 55.0582 59.9343 54.9105C59.6048 54.7599 59.3434 54.5384 59.1502 54.2457C58.9599 53.9531 58.8647 53.5923 58.8647 53.1634C58.8647 52.794 58.9329 52.4886 59.0692 52.2472C59.2056 52.0057 59.3917 51.8125 59.6275 51.6676C59.8633 51.5227 60.1289 51.4134 60.4244 51.3395C60.7227 51.2628 61.0309 51.2074 61.3491 51.1733C61.7326 51.1335 62.0437 51.098 62.2823 51.0668C62.521 51.0327 62.6942 50.9815 62.8022 50.9134C62.913 50.8423 62.9684 50.733 62.9684 50.5852V50.5597C62.9684 50.2386 62.8732 49.9901 62.6829 49.8139C62.4925 49.6378 62.2184 49.5497 61.8604 49.5497C61.4826 49.5497 61.1829 49.6321 60.9613 49.7969C60.7425 49.9616 60.5948 50.1562 60.5181 50.3807L59.0778 50.1761C59.1914 49.7784 59.3789 49.446 59.6403 49.179C59.9016 48.9091 60.2212 48.7074 60.5991 48.5739C60.9769 48.4375 61.3945 48.3693 61.8519 48.3693C62.1673 48.3693 62.4812 48.4062 62.7937 48.4801C63.1062 48.554 63.3917 48.6761 63.6502 48.8466C63.9087 49.0142 64.1161 49.2429 64.2724 49.5327C64.4315 49.8224 64.511 50.1847 64.511 50.6193V55H63.0281V54.1009H62.9769C62.8832 54.2827 62.7511 54.4531 62.5806 54.6122C62.413 54.7685 62.2013 54.8949 61.9457 54.9915C61.6928 55.0852 61.396 55.1321 61.055 55.1321ZM61.4556 53.9986C61.7653 53.9986 62.0337 53.9375 62.261 53.8153C62.4883 53.6903 62.663 53.5256 62.7852 53.321C62.9102 53.1165 62.9727 52.8935 62.9727 52.652V51.8807C62.9244 51.9205 62.842 51.9574 62.7255 51.9915C62.6119 52.0256 62.484 52.0554 62.342 52.081C62.1999 52.1065 62.0593 52.1293 61.9201 52.1491C61.7809 52.169 61.6602 52.1861 61.5579 52.2003C61.3278 52.2315 61.1218 52.2827 60.94 52.3537C60.7582 52.4247 60.6147 52.5241 60.5096 52.652C60.4045 52.777 60.3519 52.9389 60.3519 53.1378C60.3519 53.4219 60.4556 53.6364 60.663 53.7812C60.8704 53.9261 61.1346 53.9986 61.4556 53.9986ZM66.0621 55V48.4545H67.5579V49.5455H67.6261C67.7454 49.1676 67.9499 48.8764 68.2397 48.6719C68.5323 48.4645 68.8661 48.3608 69.2411 48.3608C69.3263 48.3608 69.4215 48.3651 69.5266 48.3736C69.6346 48.3793 69.7241 48.3892 69.7951 48.4034V49.8224C69.7298 49.7997 69.6261 49.7798 69.484 49.7628C69.3448 49.7429 69.2099 49.733 69.0792 49.733C68.7979 49.733 68.5451 49.794 68.3207 49.9162C68.0991 50.0355 67.9244 50.2017 67.7965 50.4148C67.6687 50.6278 67.6048 50.8736 67.6048 51.152V55H66.0621ZM71.978 57.4545C71.7678 57.4545 71.5732 57.4375 71.3942 57.4034C71.218 57.3722 71.0774 57.3352 70.9723 57.2926L71.3303 56.0909C71.5547 56.1563 71.755 56.1875 71.9311 56.1847C72.1072 56.1818 72.2621 56.1264 72.3956 56.0185C72.532 55.9134 72.647 55.7372 72.7408 55.4901L72.8729 55.1364L70.4993 48.4545H72.1357L73.6442 53.3977H73.7124L75.2251 48.4545H76.8658L74.245 55.7926C74.1229 56.1392 73.9609 56.4361 73.7592 56.6832C73.5575 56.9332 73.3104 57.1236 73.0178 57.2543C72.728 57.3878 72.3814 57.4545 71.978 57.4545Z" fill="white"/>
<rect x="50.5" y="69.5" width="54" height="21" rx="10.5" stroke="white" stroke-opacity="0.6"/>
<path d="M70.331 78.2173H68.7372C68.6918 77.956 68.608 77.7244 68.4858 77.5227C68.3636 77.3182 68.2116 77.1449 68.0298 77.0028C67.848 76.8608 67.6406 76.7543 67.4077 76.6832C67.1776 76.6094 66.929 76.5724 66.6619 76.5724C66.1875 76.5724 65.767 76.6918 65.4006 76.9304C65.0341 77.1662 64.7472 77.5128 64.5398 77.9702C64.3324 78.4247 64.2287 78.9801 64.2287 79.6364C64.2287 80.304 64.3324 80.8665 64.5398 81.3239C64.75 81.7784 65.0369 82.1222 65.4006 82.3551C65.767 82.5852 66.1861 82.7003 66.6577 82.7003C66.919 82.7003 67.1634 82.6662 67.3906 82.598C67.6207 82.527 67.8267 82.4233 68.0085 82.2869C68.1932 82.1506 68.348 81.983 68.473 81.7841C68.6009 81.5852 68.6889 81.358 68.7372 81.1023L70.331 81.1108C70.2713 81.5256 70.142 81.9148 69.9432 82.2784C69.7472 82.642 69.4901 82.9631 69.1719 83.2415C68.8537 83.517 68.4815 83.733 68.0554 83.8892C67.6293 84.0426 67.1563 84.1193 66.6364 84.1193C65.8693 84.1193 65.1847 83.9418 64.5824 83.5866C63.9801 83.2315 63.5057 82.7188 63.1591 82.0483C62.8125 81.3778 62.6392 80.5739 62.6392 79.6364C62.6392 78.696 62.8139 77.892 63.1634 77.2244C63.5128 76.554 63.9886 76.0412 64.5909 75.6861C65.1932 75.331 65.875 75.1534 66.6364 75.1534C67.1222 75.1534 67.5739 75.2216 67.9915 75.358C68.4091 75.4943 68.7813 75.6946 69.108 75.9588C69.4347 76.2202 69.7031 76.5412 69.9134 76.9219C70.1264 77.2997 70.2656 77.7315 70.331 78.2173ZM73.2532 80.1648V84H71.7106V75.2727H73.2191V78.5668H73.2958C73.4492 78.1974 73.6864 77.9062 74.0075 77.6932C74.3313 77.4773 74.7433 77.3693 75.2433 77.3693C75.6978 77.3693 76.0941 77.4645 76.4322 77.6548C76.7702 77.8452 77.0316 78.1236 77.2163 78.4901C77.4038 78.8565 77.4975 79.304 77.4975 79.8324V84H75.9549V80.071C75.9549 79.6307 75.8413 79.2884 75.614 79.044C75.3896 78.7969 75.0742 78.6733 74.668 78.6733C74.3952 78.6733 74.1509 78.733 73.935 78.8523C73.7219 78.9687 73.5543 79.1378 73.4322 79.3594C73.3129 79.581 73.2532 79.8494 73.2532 80.1648ZM79.07 84V77.4545H80.6126V84H79.07ZM79.8455 76.5256C79.6012 76.5256 79.391 76.4446 79.2148 76.2827C79.0387 76.1179 78.9506 75.9205 78.9506 75.6903C78.9506 75.4574 79.0387 75.2599 79.2148 75.098C79.391 74.9332 79.6012 74.8509 79.8455 74.8509C80.0927 74.8509 80.3029 74.9332 80.4762 75.098C80.6523 75.2599 80.7404 75.4574 80.7404 75.6903C80.7404 75.9205 80.6523 76.1179 80.4762 76.2827C80.3029 76.4446 80.0927 76.5256 79.8455 76.5256ZM83.7415 75.2727V84H82.1989V75.2727H83.7415ZM87.7567 84.1151C87.2425 84.1151 86.7823 83.983 86.3761 83.7188C85.9698 83.4545 85.6488 83.071 85.413 82.5682C85.1772 82.0653 85.0593 81.4545 85.0593 80.7358C85.0593 80.0085 85.1786 79.3949 85.4173 78.8949C85.6587 78.392 85.984 78.0128 86.3931 77.7571C86.8022 77.4986 87.2582 77.3693 87.761 77.3693C88.1445 77.3693 88.4599 77.4347 88.707 77.5653C88.9542 77.6932 89.1502 77.848 89.2951 78.0298C89.44 78.2088 89.5522 78.3778 89.6317 78.5369H89.6957V75.2727H91.2425V84H89.7255V82.9688H89.6317C89.5522 83.1278 89.4371 83.2969 89.2866 83.4759C89.136 83.652 88.9371 83.8026 88.69 83.9276C88.4428 84.0526 88.1317 84.1151 87.7567 84.1151ZM88.1871 82.8494C88.5138 82.8494 88.7923 82.7614 89.0224 82.5852C89.2525 82.4062 89.4272 82.1577 89.5465 81.8395C89.6658 81.5213 89.7255 81.1506 89.7255 80.7273C89.7255 80.304 89.6658 79.9361 89.5465 79.6236C89.43 79.3111 89.2567 79.0682 89.0266 78.8949C88.7994 78.7216 88.5195 78.6349 88.1871 78.6349C87.8434 78.6349 87.5565 78.7244 87.3263 78.9034C87.0962 79.0824 86.9229 79.3295 86.8065 79.6449C86.69 79.9602 86.6317 80.321 86.6317 80.7273C86.6317 81.1364 86.69 81.5014 86.8065 81.8224C86.9258 82.1406 87.1005 82.392 87.3306 82.5767C87.5636 82.7585 87.8491 82.8494 88.1871 82.8494Z" fill="white" fill-opacity="0.6"/>
<rect x="50.5" y="98.5" width="54" height="21" rx="10.5" stroke="white" stroke-opacity="0.6"/>
<path d="M70.331 107.217H68.7372C68.6918 106.956 68.608 106.724 68.4858 106.523C68.3636 106.318 68.2116 106.145 68.0298 106.003C67.848 105.861 67.6406 105.754 67.4077 105.683C67.1776 105.609 66.929 105.572 66.6619 105.572C66.1875 105.572 65.767 105.692 65.4006 105.93C65.0341 106.166 64.7472 106.513 64.5398 106.97C64.3324 107.425 64.2287 107.98 64.2287 108.636C64.2287 109.304 64.3324 109.866 64.5398 110.324C64.75 110.778 65.0369 111.122 65.4006 111.355C65.767 111.585 66.1861 111.7 66.6577 111.7C66.919 111.7 67.1634 111.666 67.3906 111.598C67.6207 111.527 67.8267 111.423 68.0085 111.287C68.1932 111.151 68.348 110.983 68.473 110.784C68.6009 110.585 68.6889 110.358 68.7372 110.102L70.331 110.111C70.2713 110.526 70.142 110.915 69.9432 111.278C69.7472 111.642 69.4901 111.963 69.1719 112.241C68.8537 112.517 68.4815 112.733 68.0554 112.889C67.6293 113.043 67.1563 113.119 66.6364 113.119C65.8693 113.119 65.1847 112.942 64.5824 112.587C63.9801 112.232 63.5057 111.719 63.1591 111.048C62.8125 110.378 62.6392 109.574 62.6392 108.636C62.6392 107.696 62.8139 106.892 63.1634 106.224C63.5128 105.554 63.9886 105.041 64.5909 104.686C65.1932 104.331 65.875 104.153 66.6364 104.153C67.1222 104.153 67.5739 104.222 67.9915 104.358C68.4091 104.494 68.7813 104.695 69.108 104.959C69.4347 105.22 69.7031 105.541 69.9134 105.922C70.1264 106.3 70.2656 106.732 70.331 107.217ZM73.2532 109.165V113H71.7106V104.273H73.2191V107.567H73.2958C73.4492 107.197 73.6864 106.906 74.0075 106.693C74.3313 106.477 74.7433 106.369 75.2433 106.369C75.6978 106.369 76.0941 106.464 76.4322 106.655C76.7702 106.845 77.0316 107.124 77.2163 107.49C77.4038 107.857 77.4975 108.304 77.4975 108.832V113H75.9549V109.071C75.9549 108.631 75.8413 108.288 75.614 108.044C75.3896 107.797 75.0742 107.673 74.668 107.673C74.3952 107.673 74.1509 107.733 73.935 107.852C73.7219 107.969 73.5543 108.138 73.4322 108.359C73.3129 108.581 73.2532 108.849 73.2532 109.165ZM79.07 113V106.455H80.6126V113H79.07ZM79.8455 105.526C79.6012 105.526 79.391 105.445 79.2148 105.283C79.0387 105.118 78.9506 104.92 78.9506 104.69C78.9506 104.457 79.0387 104.26 79.2148 104.098C79.391 103.933 79.6012 103.851 79.8455 103.851C80.0927 103.851 80.3029 103.933 80.4762 104.098C80.6523 104.26 80.7404 104.457 80.7404 104.69C80.7404 104.92 80.6523 105.118 80.4762 105.283C80.3029 105.445 80.0927 105.526 79.8455 105.526ZM83.7415 104.273V113H82.1989V104.273H83.7415ZM87.7567 113.115C87.2425 113.115 86.7823 112.983 86.3761 112.719C85.9698 112.455 85.6488 112.071 85.413 111.568C85.1772 111.065 85.0593 110.455 85.0593 109.736C85.0593 109.009 85.1786 108.395 85.4173 107.895C85.6587 107.392 85.984 107.013 86.3931 106.757C86.8022 106.499 87.2582 106.369 87.761 106.369C88.1445 106.369 88.4599 106.435 88.707 106.565C88.9542 106.693 89.1502 106.848 89.2951 107.03C89.44 107.209 89.5522 107.378 89.6317 107.537H89.6957V104.273H91.2425V113H89.7255V111.969H89.6317C89.5522 112.128 89.4371 112.297 89.2866 112.476C89.136 112.652 88.9371 112.803 88.69 112.928C88.4428 113.053 88.1317 113.115 87.7567 113.115ZM88.1871 111.849C88.5138 111.849 88.7923 111.761 89.0224 111.585C89.2525 111.406 89.4272 111.158 89.5465 110.839C89.6658 110.521 89.7255 110.151 89.7255 109.727C89.7255 109.304 89.6658 108.936 89.5465 108.624C89.43 108.311 89.2567 108.068 89.0266 107.895C88.7994 107.722 88.5195 107.635 88.1871 107.635C87.8434 107.635 87.5565 107.724 87.3263 107.903C87.0962 108.082 86.9229 108.33 86.8065 108.645C86.69 108.96 86.6317 109.321 86.6317 109.727C86.6317 110.136 86.69 110.501 86.8065 110.822C86.9258 111.141 87.1005 111.392 87.3306 111.577C87.5636 111.759 87.8491 111.849 88.1871 111.849Z" fill="white" fill-opacity="0.6"/>
<rect x="50.5" y="127.5" width="54" height="21" rx="10.5" stroke="white" stroke-opacity="0.6"/>
<path d="M70.331 136.217H68.7372C68.6918 135.956 68.608 135.724 68.4858 135.523C68.3636 135.318 68.2116 135.145 68.0298 135.003C67.848 134.861 67.6406 134.754 67.4077 134.683C67.1776 134.609 66.929 134.572 66.6619 134.572C66.1875 134.572 65.767 134.692 65.4006 134.93C65.0341 135.166 64.7472 135.513 64.5398 135.97C64.3324 136.425 64.2287 136.98 64.2287 137.636C64.2287 138.304 64.3324 138.866 64.5398 139.324C64.75 139.778 65.0369 140.122 65.4006 140.355C65.767 140.585 66.1861 140.7 66.6577 140.7C66.919 140.7 67.1634 140.666 67.3906 140.598C67.6207 140.527 67.8267 140.423 68.0085 140.287C68.1932 140.151 68.348 139.983 68.473 139.784C68.6009 139.585 68.6889 139.358 68.7372 139.102L70.331 139.111C70.2713 139.526 70.142 139.915 69.9432 140.278C69.7472 140.642 69.4901 140.963 69.1719 141.241C68.8537 141.517 68.4815 141.733 68.0554 141.889C67.6293 142.043 67.1563 142.119 66.6364 142.119C65.8693 142.119 65.1847 141.942 64.5824 141.587C63.9801 141.232 63.5057 140.719 63.1591 140.048C62.8125 139.378 62.6392 138.574 62.6392 137.636C62.6392 136.696 62.8139 135.892 63.1634 135.224C63.5128 134.554 63.9886 134.041 64.5909 133.686C65.1932 133.331 65.875 133.153 66.6364 133.153C67.1222 133.153 67.5739 133.222 67.9915 133.358C68.4091 133.494 68.7813 133.695 69.108 133.959C69.4347 134.22 69.7031 134.541 69.9134 134.922C70.1264 135.3 70.2656 135.732 70.331 136.217ZM73.2532 138.165V142H71.7106V133.273H73.2191V136.567H73.2958C73.4492 136.197 73.6864 135.906 74.0075 135.693C74.3313 135.477 74.7433 135.369 75.2433 135.369C75.6978 135.369 76.0941 135.464 76.4322 135.655C76.7702 135.845 77.0316 136.124 77.2163 136.49C77.4038 136.857 77.4975 137.304 77.4975 137.832V142H75.9549V138.071C75.9549 137.631 75.8413 137.288 75.614 137.044C75.3896 136.797 75.0742 136.673 74.668 136.673C74.3952 136.673 74.1509 136.733 73.935 136.852C73.7219 136.969 73.5543 137.138 73.4322 137.359C73.3129 137.581 73.2532 137.849 73.2532 138.165ZM79.07 142V135.455H80.6126V142H79.07ZM79.8455 134.526C79.6012 134.526 79.391 134.445 79.2148 134.283C79.0387 134.118 78.9506 133.92 78.9506 133.69C78.9506 133.457 79.0387 133.26 79.2148 133.098C79.391 132.933 79.6012 132.851 79.8455 132.851C80.0927 132.851 80.3029 132.933 80.4762 133.098C80.6523 133.26 80.7404 133.457 80.7404 133.69C80.7404 133.92 80.6523 134.118 80.4762 134.283C80.3029 134.445 80.0927 134.526 79.8455 134.526ZM83.7415 133.273V142H82.1989V133.273H83.7415ZM87.7567 142.115C87.2425 142.115 86.7823 141.983 86.3761 141.719C85.9698 141.455 85.6488 141.071 85.413 140.568C85.1772 140.065 85.0593 139.455 85.0593 138.736C85.0593 138.009 85.1786 137.395 85.4173 136.895C85.6587 136.392 85.984 136.013 86.3931 135.757C86.8022 135.499 87.2582 135.369 87.761 135.369C88.1445 135.369 88.4599 135.435 88.707 135.565C88.9542 135.693 89.1502 135.848 89.2951 136.03C89.44 136.209 89.5522 136.378 89.6317 136.537H89.6957V133.273H91.2425V142H89.7255V140.969H89.6317C89.5522 141.128 89.4371 141.297 89.2866 141.476C89.136 141.652 88.9371 141.803 88.69 141.928C88.4428 142.053 88.1317 142.115 87.7567 142.115ZM88.1871 140.849C88.5138 140.849 88.7923 140.761 89.0224 140.585C89.2525 140.406 89.4272 140.158 89.5465 139.839C89.6658 139.521 89.7255 139.151 89.7255 138.727C89.7255 138.304 89.6658 137.936 89.5465 137.624C89.43 137.311 89.2567 137.068 89.0266 136.895C88.7994 136.722 88.5195 136.635 88.1871 136.635C87.8434 136.635 87.5565 136.724 87.3263 136.903C87.0962 137.082 86.9229 137.33 86.8065 137.645C86.69 137.96 86.6317 138.321 86.6317 138.727C86.6317 139.136 86.69 139.501 86.8065 139.822C86.9258 140.141 87.1005 140.392 87.3306 140.577C87.5636 140.759 87.8491 140.849 88.1871 140.849Z" fill="white" fill-opacity="0.6"/>
<rect x="126.5" y="40.5" width="55" height="21" rx="10.5" stroke="#FF4848"/>
<path d="M138.477 47.598V46.2727H145.44V47.598H142.743V55H141.175V47.598H138.477ZM148.62 55.1278C147.981 55.1278 147.427 54.9872 146.958 54.706C146.49 54.4247 146.126 54.0312 145.868 53.5256C145.612 53.0199 145.484 52.429 145.484 51.7528C145.484 51.0767 145.612 50.4844 145.868 49.9759C146.126 49.4673 146.49 49.0724 146.958 48.7912C147.427 48.5099 147.981 48.3693 148.62 48.3693C149.26 48.3693 149.814 48.5099 150.282 48.7912C150.751 49.0724 151.113 49.4673 151.369 49.9759C151.627 50.4844 151.757 51.0767 151.757 51.7528C151.757 52.429 151.627 53.0199 151.369 53.5256C151.113 54.0312 150.751 54.4247 150.282 54.706C149.814 54.9872 149.26 55.1278 148.62 55.1278ZM148.629 53.892C148.975 53.892 149.265 53.7969 149.498 53.6065C149.731 53.4134 149.904 53.1548 150.018 52.831C150.135 52.5071 150.193 52.1463 150.193 51.7486C150.193 51.348 150.135 50.9858 150.018 50.6619C149.904 50.3352 149.731 50.0753 149.498 49.8821C149.265 49.6889 148.975 49.5923 148.629 49.5923C148.274 49.5923 147.978 49.6889 147.743 49.8821C147.51 50.0753 147.335 50.3352 147.218 50.6619C147.105 50.9858 147.048 51.348 147.048 51.7486C147.048 52.1463 147.105 52.5071 147.218 52.831C147.335 53.1548 147.51 53.4134 147.743 53.6065C147.978 53.7969 148.274 53.892 148.629 53.892ZM155.921 55.1278C155.282 55.1278 154.728 54.9872 154.259 54.706C153.79 54.4247 153.427 54.0312 153.168 53.5256C152.913 53.0199 152.785 52.429 152.785 51.7528C152.785 51.0767 152.913 50.4844 153.168 49.9759C153.427 49.4673 153.79 49.0724 154.259 48.7912C154.728 48.5099 155.282 48.3693 155.921 48.3693C156.56 48.3693 157.114 48.5099 157.583 48.7912C158.052 49.0724 158.414 49.4673 158.67 49.9759C158.928 50.4844 159.058 51.0767 159.058 51.7528C159.058 52.429 158.928 53.0199 158.67 53.5256C158.414 54.0312 158.052 54.4247 157.583 54.706C157.114 54.9872 156.56 55.1278 155.921 55.1278ZM155.93 53.892C156.276 53.892 156.566 53.7969 156.799 53.6065C157.032 53.4134 157.205 53.1548 157.319 52.831C157.435 52.5071 157.494 52.1463 157.494 51.7486C157.494 51.348 157.435 50.9858 157.319 50.6619C157.205 50.3352 157.032 50.0753 156.799 49.8821C156.566 49.6889 156.276 49.5923 155.93 49.5923C155.575 49.5923 155.279 49.6889 155.043 49.8821C154.81 50.0753 154.636 50.3352 154.519 50.6619C154.406 50.9858 154.349 51.348 154.349 51.7486C154.349 52.1463 154.406 52.5071 154.519 52.831C154.636 53.1548 154.81 53.4134 155.043 53.6065C155.279 53.7969 155.575 53.892 155.93 53.892ZM161.909 46.2727V55H160.367V46.2727H161.909ZM168.669 50.1847L167.263 50.3381C167.223 50.196 167.153 50.0625 167.054 49.9375C166.957 49.8125 166.827 49.7116 166.662 49.6349C166.497 49.5582 166.295 49.5199 166.057 49.5199C165.736 49.5199 165.466 49.5895 165.247 49.7287C165.031 49.8679 164.925 50.0483 164.928 50.2699C164.925 50.4602 164.994 50.6151 165.136 50.7344C165.281 50.8537 165.52 50.9517 165.852 51.0284L166.969 51.267C167.588 51.4006 168.048 51.6122 168.349 51.902C168.653 52.1918 168.807 52.571 168.81 53.0398C168.807 53.4517 168.686 53.8153 168.447 54.1307C168.212 54.4432 167.884 54.6875 167.463 54.8636C167.043 55.0398 166.56 55.1278 166.014 55.1278C165.213 55.1278 164.568 54.9602 164.08 54.625C163.591 54.2869 163.3 53.8168 163.206 53.2145L164.71 53.0696C164.778 53.3651 164.923 53.5881 165.145 53.7386C165.366 53.8892 165.655 53.9645 166.01 53.9645C166.376 53.9645 166.67 53.8892 166.892 53.7386C167.116 53.5881 167.229 53.402 167.229 53.1804C167.229 52.9929 167.156 52.8381 167.011 52.7159C166.869 52.5937 166.648 52.5 166.347 52.4347L165.23 52.2003C164.602 52.0696 164.138 51.8494 163.837 51.5398C163.536 51.2273 163.386 50.8324 163.389 50.3551C163.386 49.9517 163.496 49.6023 163.717 49.3068C163.942 49.0085 164.253 48.7784 164.651 48.6165C165.051 48.4517 165.513 48.3693 166.036 48.3693C166.803 48.3693 167.406 48.5327 167.847 48.8594C168.29 49.1861 168.564 49.6278 168.669 50.1847Z" fill="#FF4848"/>
<rect x="148.5" y="69.5" width="90" height="21" rx="10.5" stroke="#FF4848" stroke-opacity="0.6"/>
<path d="M160.861 84V75.2727H164.134C164.804 75.2727 165.366 75.3977 165.821 75.6477C166.278 75.8977 166.624 76.2415 166.857 76.679C167.092 77.1136 167.21 77.608 167.21 78.1619C167.21 78.7216 167.092 79.2187 166.857 79.6534C166.621 80.0881 166.273 80.4304 165.812 80.6804C165.352 80.9276 164.786 81.0511 164.112 81.0511H161.943V79.7514H163.899C164.291 79.7514 164.612 79.6832 164.862 79.5469C165.112 79.4105 165.297 79.223 165.416 78.9844C165.538 78.7457 165.599 78.4716 165.599 78.1619C165.599 77.8523 165.538 77.5795 165.416 77.3438C165.297 77.108 165.111 76.9247 164.858 76.794C164.608 76.6605 164.286 76.5938 163.891 76.5938H162.442V84H160.861ZM171.277 84.1278C170.637 84.1278 170.083 83.9872 169.615 83.706C169.146 83.4247 168.782 83.0312 168.524 82.5256C168.268 82.0199 168.14 81.429 168.14 80.7528C168.14 80.0767 168.268 79.4844 168.524 78.9759C168.782 78.4673 169.146 78.0724 169.615 77.7912C170.083 77.5099 170.637 77.3693 171.277 77.3693C171.916 77.3693 172.47 77.5099 172.939 77.7912C173.407 78.0724 173.77 78.4673 174.025 78.9759C174.284 79.4844 174.413 80.0767 174.413 80.7528C174.413 81.429 174.284 82.0199 174.025 82.5256C173.77 83.0312 173.407 83.4247 172.939 83.706C172.47 83.9872 171.916 84.1278 171.277 84.1278ZM171.285 82.892C171.632 82.892 171.922 82.7969 172.154 82.6065C172.387 82.4134 172.561 82.1548 172.674 81.831C172.791 81.5071 172.849 81.1463 172.849 80.7486C172.849 80.348 172.791 79.9858 172.674 79.6619C172.561 79.3352 172.387 79.0753 172.154 78.8821C171.922 78.6889 171.632 78.5923 171.285 78.5923C170.93 78.5923 170.635 78.6889 170.399 78.8821C170.166 79.0753 169.991 79.3352 169.875 79.6619C169.761 79.9858 169.704 80.348 169.704 80.7486C169.704 81.1463 169.761 81.5071 169.875 81.831C169.991 82.1548 170.166 82.4134 170.399 82.6065C170.635 82.7969 170.93 82.892 171.285 82.892ZM176.886 84L175.036 77.4545H176.609L177.759 82.0568H177.819L178.995 77.4545H180.55L181.727 82.0312H181.79L182.924 77.4545H184.501L182.647 84H181.04L179.813 79.5767H179.724L178.496 84H176.886ZM188.288 84.1278C187.632 84.1278 187.065 83.9915 186.588 83.7188C186.113 83.4432 185.748 83.054 185.493 82.5511C185.237 82.0455 185.109 81.4503 185.109 80.7656C185.109 80.0923 185.237 79.5014 185.493 78.9929C185.751 78.4815 186.112 78.0838 186.575 77.7997C187.038 77.5128 187.582 77.3693 188.207 77.3693C188.61 77.3693 188.991 77.4347 189.349 77.5653C189.71 77.6932 190.028 77.892 190.304 78.1619C190.582 78.4318 190.801 78.7756 190.96 79.1932C191.119 79.608 191.199 80.1023 191.199 80.6761V81.1491H185.833V80.1094H189.72C189.717 79.8139 189.653 79.5511 189.528 79.321C189.403 79.0881 189.228 78.9048 189.004 78.7713C188.782 78.6378 188.524 78.571 188.228 78.571C187.913 78.571 187.636 78.6477 187.397 78.8011C187.159 78.9517 186.973 79.1506 186.839 79.3977C186.708 79.642 186.642 79.9105 186.639 80.2031V81.1108C186.639 81.4915 186.708 81.8182 186.848 82.0909C186.987 82.3608 187.181 82.5682 187.431 82.7131C187.681 82.8551 187.974 82.9261 188.309 82.9261C188.534 82.9261 188.737 82.8949 188.919 82.8324C189.1 82.767 189.258 82.6719 189.392 82.5469C189.525 82.4219 189.626 82.267 189.694 82.0824L191.135 82.2443C191.044 82.625 190.87 82.9574 190.615 83.2415C190.362 83.5227 190.038 83.7415 189.643 83.8977C189.248 84.0511 188.797 84.1278 188.288 84.1278ZM192.504 84V77.4545H193.999V78.5455H194.067C194.187 78.1676 194.391 77.8764 194.681 77.6719C194.974 77.4645 195.308 77.3608 195.683 77.3608C195.768 77.3608 195.863 77.3651 195.968 77.3736C196.076 77.3793 196.165 77.3892 196.237 77.4034V78.8224C196.171 78.7997 196.067 78.7798 195.925 78.7628C195.786 78.7429 195.651 78.733 195.521 78.733C195.239 78.733 194.987 78.794 194.762 78.9162C194.54 79.0355 194.366 79.2017 194.238 79.4148C194.11 79.6278 194.046 79.8736 194.046 80.152V84H192.504ZM197.261 86.4545V77.4545H198.778V78.5369H198.868C198.947 78.3778 199.06 78.2088 199.205 78.0298C199.349 77.848 199.545 77.6932 199.793 77.5653C200.04 77.4347 200.355 77.3693 200.739 77.3693C201.244 77.3693 201.7 77.4986 202.107 77.7571C202.516 78.0128 202.839 78.392 203.078 78.8949C203.32 79.3949 203.44 80.0085 203.44 80.7358C203.44 81.4545 203.322 82.0653 203.087 82.5682C202.851 83.071 202.53 83.4545 202.124 83.7188C201.717 83.983 201.257 84.1151 200.743 84.1151C200.368 84.1151 200.057 84.0526 199.81 83.9276C199.563 83.8026 199.364 83.652 199.213 83.4759C199.065 83.2969 198.95 83.1278 198.868 82.9688H198.804V86.4545H197.261ZM198.774 80.7273C198.774 81.1506 198.834 81.5213 198.953 81.8395C199.075 82.1577 199.25 82.4062 199.477 82.5852C199.707 82.7614 199.986 82.8494 200.312 82.8494C200.653 82.8494 200.939 82.7585 201.169 82.5767C201.399 82.392 201.572 82.1406 201.689 81.8224C201.808 81.5014 201.868 81.1364 201.868 80.7273C201.868 80.321 201.81 79.9602 201.693 79.6449C201.577 79.3295 201.403 79.0824 201.173 78.9034C200.943 78.7244 200.656 78.6349 200.312 78.6349C199.983 78.6349 199.703 78.7216 199.473 78.8949C199.243 79.0682 199.068 79.3111 198.949 79.6236C198.832 79.9361 198.774 80.304 198.774 80.7273ZM207.616 84.1278C206.977 84.1278 206.423 83.9872 205.955 83.706C205.486 83.4247 205.122 83.0312 204.864 82.5256C204.608 82.0199 204.48 81.429 204.48 80.7528C204.48 80.0767 204.608 79.4844 204.864 78.9759C205.122 78.4673 205.486 78.0724 205.955 77.7912C206.423 77.5099 206.977 77.3693 207.616 77.3693C208.256 77.3693 208.81 77.5099 209.278 77.7912C209.747 78.0724 210.109 78.4673 210.365 78.9759C210.624 79.4844 210.753 80.0767 210.753 80.7528C210.753 81.429 210.624 82.0199 210.365 82.5256C210.109 83.0312 209.747 83.4247 209.278 83.706C208.81 83.9872 208.256 84.1278 207.616 84.1278ZM207.625 82.892C207.972 82.892 208.261 82.7969 208.494 82.6065C208.727 82.4134 208.901 82.1548 209.014 81.831C209.131 81.5071 209.189 81.1463 209.189 80.7486C209.189 80.348 209.131 79.9858 209.014 79.6619C208.901 79.3352 208.727 79.0753 208.494 78.8821C208.261 78.6889 207.972 78.5923 207.625 78.5923C207.27 78.5923 206.974 78.6889 206.739 78.8821C206.506 79.0753 206.331 79.3352 206.214 79.6619C206.101 79.9858 206.044 80.348 206.044 80.7486C206.044 81.1463 206.101 81.5071 206.214 81.831C206.331 82.1548 206.506 82.4134 206.739 82.6065C206.974 82.7969 207.27 82.892 207.625 82.892ZM212.062 84V77.4545H213.605V84H212.062ZM212.838 76.5256C212.593 76.5256 212.383 76.4446 212.207 76.2827C212.031 76.1179 211.943 75.9205 211.943 75.6903C211.943 75.4574 212.031 75.2599 212.207 75.098C212.383 74.9332 212.593 74.8509 212.838 74.8509C213.085 74.8509 213.295 74.9332 213.468 75.098C213.645 75.2599 213.733 75.4574 213.733 75.6903C213.733 75.9205 213.645 76.1179 213.468 76.2827C213.295 76.4446 213.085 76.5256 212.838 76.5256ZM216.734 80.1648V84H215.191V77.4545H216.665V78.5668H216.742C216.893 78.2003 217.133 77.9091 217.462 77.6932C217.795 77.4773 218.205 77.3693 218.694 77.3693C219.146 77.3693 219.539 77.4659 219.874 77.6591C220.212 77.8523 220.474 78.1321 220.658 78.4986C220.846 78.8651 220.938 79.3097 220.935 79.8324V84H219.393V80.071C219.393 79.6335 219.279 79.2912 219.052 79.044C218.827 78.7969 218.516 78.6733 218.119 78.6733C217.849 78.6733 217.609 78.733 217.398 78.8523C217.191 78.9687 217.028 79.1378 216.908 79.3594C216.792 79.581 216.734 79.8494 216.734 80.1648ZM225.772 77.4545V78.6477H222.009V77.4545H225.772ZM222.938 75.8864H224.481V82.0312C224.481 82.2386 224.512 82.3977 224.575 82.5085C224.64 82.6165 224.725 82.6903 224.83 82.7301C224.935 82.7699 225.052 82.7898 225.18 82.7898C225.276 82.7898 225.364 82.7827 225.444 82.7685C225.526 82.7543 225.589 82.7415 225.631 82.7301L225.891 83.9361C225.809 83.9645 225.691 83.9957 225.538 84.0298C225.387 84.0639 225.202 84.0838 224.984 84.0895C224.597 84.1009 224.249 84.0426 223.94 83.9148C223.63 83.7841 223.384 83.5824 223.202 83.3097C223.023 83.0369 222.935 82.696 222.938 82.2869V75.8864Z" fill="#FF4848" fill-opacity="0.6"/>
<rect x="148.5" y="98.5" width="108" height="21" rx="10.5" stroke="#FF4848" stroke-opacity="0.6"/>
<path d="M166.707 107.06C166.636 106.83 166.538 106.624 166.413 106.442C166.291 106.257 166.143 106.099 165.97 105.969C165.8 105.838 165.604 105.74 165.382 105.675C165.161 105.607 164.919 105.572 164.658 105.572C164.189 105.572 163.771 105.69 163.405 105.926C163.038 106.162 162.75 106.509 162.54 106.966C162.332 107.42 162.229 107.974 162.229 108.628C162.229 109.287 162.332 109.845 162.54 110.303C162.747 110.76 163.036 111.108 163.405 111.347C163.774 111.582 164.203 111.7 164.692 111.7C165.135 111.7 165.518 111.615 165.842 111.445C166.169 111.274 166.42 111.033 166.597 110.72C166.773 110.405 166.861 110.036 166.861 109.612L167.219 109.668H164.849V108.432H168.391V109.48C168.391 110.227 168.232 110.874 167.913 111.419C167.595 111.964 167.158 112.385 166.601 112.68C166.044 112.973 165.405 113.119 164.683 113.119C163.879 113.119 163.173 112.939 162.565 112.578C161.96 112.214 161.487 111.699 161.146 111.031C160.808 110.361 160.639 109.565 160.639 108.645C160.639 107.94 160.739 107.311 160.938 106.757C161.139 106.203 161.42 105.733 161.781 105.347C162.142 104.957 162.565 104.662 163.051 104.46C163.537 104.256 164.065 104.153 164.636 104.153C165.119 104.153 165.57 104.224 165.987 104.366C166.405 104.506 166.776 104.705 167.099 104.963C167.426 105.222 167.695 105.528 167.905 105.884C168.115 106.239 168.253 106.631 168.318 107.06H166.707ZM172.706 113.128C172.067 113.128 171.513 112.987 171.044 112.706C170.576 112.425 170.212 112.031 169.953 111.526C169.698 111.02 169.57 110.429 169.57 109.753C169.57 109.077 169.698 108.484 169.953 107.976C170.212 107.467 170.576 107.072 171.044 106.791C171.513 106.51 172.067 106.369 172.706 106.369C173.346 106.369 173.9 106.51 174.368 106.791C174.837 107.072 175.199 107.467 175.455 107.976C175.713 108.484 175.843 109.077 175.843 109.753C175.843 110.429 175.713 111.02 175.455 111.526C175.199 112.031 174.837 112.425 174.368 112.706C173.9 112.987 173.346 113.128 172.706 113.128ZM172.715 111.892C173.061 111.892 173.351 111.797 173.584 111.607C173.817 111.413 173.99 111.155 174.104 110.831C174.221 110.507 174.279 110.146 174.279 109.749C174.279 109.348 174.221 108.986 174.104 108.662C173.99 108.335 173.817 108.075 173.584 107.882C173.351 107.689 173.061 107.592 172.715 107.592C172.36 107.592 172.064 107.689 171.828 107.882C171.596 108.075 171.421 108.335 171.304 108.662C171.191 108.986 171.134 109.348 171.134 109.749C171.134 110.146 171.191 110.507 171.304 110.831C171.421 111.155 171.596 111.413 171.828 111.607C172.064 111.797 172.36 111.892 172.715 111.892ZM180.007 113.128C179.368 113.128 178.814 112.987 178.345 112.706C177.876 112.425 177.513 112.031 177.254 111.526C176.999 111.02 176.871 110.429 176.871 109.753C176.871 109.077 176.999 108.484 177.254 107.976C177.513 107.467 177.876 107.072 178.345 106.791C178.814 106.51 179.368 106.369 180.007 106.369C180.646 106.369 181.2 106.51 181.669 106.791C182.138 107.072 182.5 107.467 182.756 107.976C183.014 108.484 183.143 109.077 183.143 109.753C183.143 110.429 183.014 111.02 182.756 111.526C182.5 112.031 182.138 112.425 181.669 112.706C181.2 112.987 180.646 113.128 180.007 113.128ZM180.016 111.892C180.362 111.892 180.652 111.797 180.885 111.607C181.118 111.413 181.291 111.155 181.405 110.831C181.521 110.507 181.58 110.146 181.58 109.749C181.58 109.348 181.521 108.986 181.405 108.662C181.291 108.335 181.118 108.075 180.885 107.882C180.652 107.689 180.362 107.592 180.016 107.592C179.661 107.592 179.365 107.689 179.129 107.882C178.896 108.075 178.722 108.335 178.605 108.662C178.491 108.986 178.435 109.348 178.435 109.749C178.435 110.146 178.491 110.507 178.605 110.831C178.722 111.155 178.896 111.413 179.129 111.607C179.365 111.797 179.661 111.892 180.016 111.892ZM187.299 115.591C186.745 115.591 186.27 115.516 185.872 115.365C185.474 115.217 185.154 115.018 184.913 114.768C184.672 114.518 184.504 114.241 184.41 113.938L185.799 113.601C185.862 113.729 185.953 113.855 186.072 113.98C186.191 114.108 186.352 114.213 186.554 114.295C186.758 114.381 187.015 114.423 187.325 114.423C187.762 114.423 188.125 114.317 188.412 114.104C188.699 113.893 188.842 113.547 188.842 113.064V111.824H188.765C188.686 111.983 188.569 112.146 188.416 112.314C188.265 112.482 188.065 112.622 187.815 112.736C187.568 112.849 187.257 112.906 186.882 112.906C186.379 112.906 185.923 112.788 185.514 112.553C185.108 112.314 184.784 111.959 184.542 111.487C184.304 111.013 184.184 110.419 184.184 109.706C184.184 108.987 184.304 108.381 184.542 107.886C184.784 107.389 185.109 107.013 185.518 106.757C185.927 106.499 186.383 106.369 186.886 106.369C187.27 106.369 187.585 106.435 187.832 106.565C188.082 106.693 188.281 106.848 188.429 107.03C188.576 107.209 188.689 107.378 188.765 107.537H188.85V106.455H190.372V113.107C190.372 113.666 190.238 114.129 189.971 114.496C189.704 114.862 189.339 115.136 188.876 115.318C188.413 115.5 187.887 115.591 187.299 115.591ZM187.312 111.696C187.639 111.696 187.917 111.616 188.147 111.457C188.377 111.298 188.552 111.07 188.672 110.771C188.791 110.473 188.85 110.115 188.85 109.697C188.85 109.286 188.791 108.925 188.672 108.615C188.555 108.305 188.382 108.065 188.152 107.895C187.924 107.722 187.645 107.635 187.312 107.635C186.968 107.635 186.681 107.724 186.451 107.903C186.221 108.082 186.048 108.328 185.931 108.641C185.815 108.95 185.757 109.303 185.757 109.697C185.757 110.098 185.815 110.449 185.931 110.75C186.051 111.048 186.225 111.281 186.456 111.449C186.689 111.614 186.974 111.696 187.312 111.696ZM193.495 104.273V113H191.953V104.273H193.495ZM197.979 113.128C197.323 113.128 196.756 112.991 196.279 112.719C195.805 112.443 195.44 112.054 195.184 111.551C194.928 111.045 194.8 110.45 194.8 109.766C194.8 109.092 194.928 108.501 195.184 107.993C195.442 107.482 195.803 107.084 196.266 106.8C196.729 106.513 197.273 106.369 197.898 106.369C198.302 106.369 198.683 106.435 199.04 106.565C199.401 106.693 199.719 106.892 199.995 107.162C200.273 107.432 200.492 107.776 200.651 108.193C200.81 108.608 200.89 109.102 200.89 109.676V110.149H195.525V109.109H199.411C199.408 108.814 199.344 108.551 199.219 108.321C199.094 108.088 198.92 107.905 198.695 107.771C198.474 107.638 198.215 107.571 197.92 107.571C197.604 107.571 197.327 107.648 197.089 107.801C196.85 107.952 196.664 108.151 196.531 108.398C196.4 108.642 196.333 108.911 196.33 109.203V110.111C196.33 110.491 196.4 110.818 196.539 111.091C196.678 111.361 196.873 111.568 197.123 111.713C197.373 111.855 197.665 111.926 198.001 111.926C198.225 111.926 198.428 111.895 198.61 111.832C198.792 111.767 198.95 111.672 199.083 111.547C199.217 111.422 199.317 111.267 199.386 111.082L200.826 111.244C200.735 111.625 200.562 111.957 200.306 112.241C200.053 112.523 199.729 112.741 199.335 112.898C198.94 113.051 198.488 113.128 197.979 113.128ZM209.983 106.672C209.943 106.3 209.775 106.01 209.48 105.803C209.187 105.595 208.806 105.491 208.338 105.491C208.008 105.491 207.725 105.541 207.49 105.641C207.254 105.74 207.074 105.875 206.949 106.045C206.824 106.216 206.76 106.411 206.757 106.629C206.757 106.811 206.798 106.969 206.88 107.102C206.966 107.236 207.081 107.349 207.225 107.443C207.37 107.534 207.531 107.611 207.707 107.673C207.883 107.736 208.061 107.788 208.24 107.831L209.058 108.036C209.387 108.112 209.704 108.216 210.008 108.347C210.315 108.477 210.589 108.642 210.831 108.841C211.075 109.04 211.268 109.28 211.41 109.561C211.552 109.842 211.623 110.172 211.623 110.55C211.623 111.061 211.493 111.511 211.231 111.901C210.97 112.287 210.592 112.589 210.098 112.808C209.606 113.024 209.011 113.132 208.312 113.132C207.633 113.132 207.044 113.027 206.544 112.817C206.047 112.607 205.657 112.3 205.376 111.896C205.098 111.493 204.947 111.001 204.924 110.422H206.48C206.502 110.726 206.596 110.979 206.761 111.18C206.926 111.382 207.14 111.533 207.404 111.632C207.672 111.732 207.97 111.781 208.299 111.781C208.643 111.781 208.944 111.73 209.203 111.628C209.464 111.523 209.669 111.378 209.816 111.193C209.964 111.006 210.039 110.787 210.042 110.537C210.039 110.31 209.973 110.122 209.842 109.974C209.711 109.824 209.528 109.699 209.292 109.599C209.059 109.497 208.787 109.406 208.474 109.327L207.481 109.071C206.762 108.886 206.194 108.607 205.777 108.232C205.362 107.854 205.154 107.352 205.154 106.727C205.154 106.213 205.294 105.763 205.572 105.376C205.853 104.99 206.235 104.69 206.718 104.477C207.201 104.261 207.748 104.153 208.359 104.153C208.978 104.153 209.521 104.261 209.987 104.477C210.456 104.69 210.824 104.987 211.091 105.368C211.358 105.746 211.495 106.18 211.504 106.672H209.983ZM214.507 109.165V113H212.964V104.273H214.473V107.567H214.55C214.703 107.197 214.94 106.906 215.261 106.693C215.585 106.477 215.997 106.369 216.497 106.369C216.952 106.369 217.348 106.464 217.686 106.655C218.024 106.845 218.286 107.124 218.47 107.49C218.658 107.857 218.751 108.304 218.751 108.832V113H217.209V109.071C217.209 108.631 217.095 108.288 216.868 108.044C216.643 107.797 216.328 107.673 215.922 107.673C215.649 107.673 215.405 107.733 215.189 107.852C214.976 107.969 214.808 108.138 214.686 108.359C214.567 108.581 214.507 108.849 214.507 109.165ZM223.222 113.128C222.565 113.128 221.999 112.991 221.521 112.719C221.047 112.443 220.682 112.054 220.426 111.551C220.17 111.045 220.043 110.45 220.043 109.766C220.043 109.092 220.17 108.501 220.426 107.993C220.685 107.482 221.045 107.084 221.509 106.8C221.972 106.513 222.516 106.369 223.141 106.369C223.544 106.369 223.925 106.435 224.283 106.565C224.643 106.693 224.962 106.892 225.237 107.162C225.516 107.432 225.734 107.776 225.893 108.193C226.053 108.608 226.132 109.102 226.132 109.676V110.149H220.767V109.109H224.653C224.651 108.814 224.587 108.551 224.462 108.321C224.337 108.088 224.162 107.905 223.938 107.771C223.716 107.638 223.457 107.571 223.162 107.571C222.847 107.571 222.57 107.648 222.331 107.801C222.092 107.952 221.906 108.151 221.773 108.398C221.642 108.642 221.575 108.911 221.572 109.203V110.111C221.572 110.491 221.642 110.818 221.781 111.091C221.92 111.361 222.115 111.568 222.365 111.713C222.615 111.855 222.908 111.926 223.243 111.926C223.467 111.926 223.67 111.895 223.852 111.832C224.034 111.767 224.192 111.672 224.325 111.547C224.459 111.422 224.56 111.267 224.628 111.082L226.068 111.244C225.977 111.625 225.804 111.957 225.548 112.241C225.295 112.523 224.972 112.741 224.577 112.898C224.182 113.051 223.73 113.128 223.222 113.128ZM230.335 113.128C229.679 113.128 229.112 112.991 228.635 112.719C228.16 112.443 227.795 112.054 227.539 111.551C227.284 111.045 227.156 110.45 227.156 109.766C227.156 109.092 227.284 108.501 227.539 107.993C227.798 107.482 228.159 107.084 228.622 106.8C229.085 106.513 229.629 106.369 230.254 106.369C230.657 106.369 231.038 106.435 231.396 106.565C231.757 106.693 232.075 106.892 232.35 107.162C232.629 107.432 232.848 107.776 233.007 108.193C233.166 108.608 233.245 109.102 233.245 109.676V110.149H227.88V109.109H231.767C231.764 108.814 231.7 108.551 231.575 108.321C231.45 108.088 231.275 107.905 231.051 107.771C230.829 107.638 230.571 107.571 230.275 107.571C229.96 107.571 229.683 107.648 229.444 107.801C229.206 107.952 229.02 108.151 228.886 108.398C228.755 108.642 228.689 108.911 228.686 109.203V110.111C228.686 110.491 228.755 110.818 228.895 111.091C229.034 111.361 229.228 111.568 229.478 111.713C229.728 111.855 230.021 111.926 230.356 111.926C230.581 111.926 230.784 111.895 230.966 111.832C231.147 111.767 231.305 111.672 231.439 111.547C231.572 111.422 231.673 111.267 231.741 111.082L233.181 111.244C233.091 111.625 232.917 111.957 232.662 112.241C232.409 112.523 232.085 112.741 231.69 112.898C231.295 113.051 230.843 113.128 230.335 113.128ZM237.819 106.455V107.648H234.056V106.455H237.819ZM234.985 104.886H236.528V111.031C236.528 111.239 236.559 111.398 236.621 111.509C236.687 111.616 236.772 111.69 236.877 111.73C236.982 111.77 237.099 111.79 237.227 111.79C237.323 111.79 237.411 111.783 237.491 111.768C237.573 111.754 237.636 111.741 237.678 111.73L237.938 112.936C237.856 112.964 237.738 112.996 237.585 113.03C237.434 113.064 237.249 113.084 237.031 113.089C236.644 113.101 236.296 113.043 235.987 112.915C235.677 112.784 235.431 112.582 235.249 112.31C235.07 112.037 234.982 111.696 234.985 111.287V104.886ZM244.189 108.185L242.782 108.338C242.743 108.196 242.673 108.062 242.574 107.938C242.477 107.812 242.346 107.712 242.181 107.635C242.017 107.558 241.815 107.52 241.576 107.52C241.255 107.52 240.985 107.589 240.767 107.729C240.551 107.868 240.444 108.048 240.447 108.27C240.444 108.46 240.514 108.615 240.656 108.734C240.801 108.854 241.039 108.952 241.372 109.028L242.488 109.267C243.108 109.401 243.568 109.612 243.869 109.902C244.173 110.192 244.326 110.571 244.329 111.04C244.326 111.452 244.206 111.815 243.967 112.131C243.731 112.443 243.403 112.687 242.983 112.864C242.562 113.04 242.079 113.128 241.534 113.128C240.733 113.128 240.088 112.96 239.599 112.625C239.11 112.287 238.819 111.817 238.725 111.214L240.23 111.07C240.298 111.365 240.443 111.588 240.664 111.739C240.886 111.889 241.174 111.964 241.529 111.964C241.896 111.964 242.19 111.889 242.412 111.739C242.636 111.588 242.748 111.402 242.748 111.18C242.748 110.993 242.676 110.838 242.531 110.716C242.389 110.594 242.167 110.5 241.866 110.435L240.75 110.2C240.122 110.07 239.657 109.849 239.356 109.54C239.055 109.227 238.906 108.832 238.909 108.355C238.906 107.952 239.015 107.602 239.237 107.307C239.461 107.009 239.772 106.778 240.17 106.616C240.571 106.452 241.032 106.369 241.555 106.369C242.322 106.369 242.926 106.533 243.366 106.859C243.809 107.186 244.083 107.628 244.189 108.185Z" fill="#FF4848" fill-opacity="0.6"/>
<rect x="148.5" y="127.5" width="100" height="21" rx="10.5" stroke="#FF4848" stroke-opacity="0.6"/>
<path d="M162.028 133.273L164.3 140.142H164.389L166.656 133.273H168.395L165.318 142H163.366L160.294 133.273H162.028ZM169.476 142V135.455H171.019V142H169.476ZM170.252 134.526C170.007 134.526 169.797 134.445 169.621 134.283C169.445 134.118 169.357 133.92 169.357 133.69C169.357 133.457 169.445 133.26 169.621 133.098C169.797 132.933 170.007 132.851 170.252 132.851C170.499 132.851 170.709 132.933 170.882 133.098C171.059 133.26 171.147 133.457 171.147 133.69C171.147 133.92 171.059 134.118 170.882 134.283C170.709 134.445 170.499 134.526 170.252 134.526ZM177.778 137.185L176.372 137.338C176.332 137.196 176.263 137.062 176.163 136.938C176.067 136.812 175.936 136.712 175.771 136.635C175.607 136.558 175.405 136.52 175.166 136.52C174.845 136.52 174.575 136.589 174.357 136.729C174.141 136.868 174.034 137.048 174.037 137.27C174.034 137.46 174.104 137.615 174.246 137.734C174.391 137.854 174.629 137.952 174.962 138.028L176.078 138.267C176.697 138.401 177.158 138.612 177.459 138.902C177.763 139.192 177.916 139.571 177.919 140.04C177.916 140.452 177.795 140.815 177.557 141.131C177.321 141.443 176.993 141.687 176.572 141.864C176.152 142.04 175.669 142.128 175.124 142.128C174.322 142.128 173.678 141.96 173.189 141.625C172.7 141.287 172.409 140.817 172.315 140.214L173.82 140.07C173.888 140.365 174.033 140.588 174.254 140.739C174.476 140.889 174.764 140.964 175.119 140.964C175.486 140.964 175.78 140.889 176.001 140.739C176.226 140.588 176.338 140.402 176.338 140.18C176.338 139.993 176.266 139.838 176.121 139.716C175.979 139.594 175.757 139.5 175.456 139.435L174.339 139.2C173.712 139.07 173.247 138.849 172.946 138.54C172.645 138.227 172.496 137.832 172.499 137.355C172.496 136.952 172.605 136.602 172.827 136.307C173.051 136.009 173.362 135.778 173.76 135.616C174.161 135.452 174.622 135.369 175.145 135.369C175.912 135.369 176.516 135.533 176.956 135.859C177.399 136.186 177.673 136.628 177.778 137.185ZM183.363 139.247V135.455H184.906V142H183.41V140.837H183.342C183.194 141.203 182.951 141.503 182.613 141.736C182.278 141.969 181.864 142.085 181.373 142.085C180.944 142.085 180.565 141.99 180.235 141.8C179.908 141.607 179.653 141.327 179.468 140.96C179.283 140.591 179.191 140.145 179.191 139.622V135.455H180.734V139.384C180.734 139.798 180.847 140.128 181.075 140.372C181.302 140.616 181.6 140.739 181.969 140.739C182.197 140.739 182.417 140.683 182.63 140.572C182.843 140.462 183.018 140.297 183.154 140.078C183.293 139.857 183.363 139.58 183.363 139.247ZM188.375 142.132C187.961 142.132 187.587 142.058 187.255 141.911C186.925 141.76 186.664 141.538 186.471 141.246C186.28 140.953 186.185 140.592 186.185 140.163C186.185 139.794 186.253 139.489 186.39 139.247C186.526 139.006 186.712 138.812 186.948 138.668C187.184 138.523 187.449 138.413 187.745 138.339C188.043 138.263 188.351 138.207 188.669 138.173C189.053 138.134 189.364 138.098 189.603 138.067C189.841 138.033 190.015 137.982 190.123 137.913C190.233 137.842 190.289 137.733 190.289 137.585V137.56C190.289 137.239 190.194 136.99 190.003 136.814C189.813 136.638 189.539 136.55 189.181 136.55C188.803 136.55 188.503 136.632 188.282 136.797C188.063 136.962 187.915 137.156 187.838 137.381L186.398 137.176C186.512 136.778 186.699 136.446 186.961 136.179C187.222 135.909 187.542 135.707 187.919 135.574C188.297 135.438 188.715 135.369 189.172 135.369C189.488 135.369 189.801 135.406 190.114 135.48C190.426 135.554 190.712 135.676 190.971 135.847C191.229 136.014 191.436 136.243 191.593 136.533C191.752 136.822 191.831 137.185 191.831 137.619V142H190.348V141.101H190.297C190.203 141.283 190.071 141.453 189.901 141.612C189.733 141.768 189.522 141.895 189.266 141.991C189.013 142.085 188.716 142.132 188.375 142.132ZM188.776 140.999C189.086 140.999 189.354 140.937 189.581 140.815C189.809 140.69 189.983 140.526 190.105 140.321C190.23 140.116 190.293 139.893 190.293 139.652V138.881C190.245 138.92 190.162 138.957 190.046 138.991C189.932 139.026 189.804 139.055 189.662 139.081C189.52 139.107 189.38 139.129 189.24 139.149C189.101 139.169 188.98 139.186 188.878 139.2C188.648 139.232 188.442 139.283 188.26 139.354C188.078 139.425 187.935 139.524 187.83 139.652C187.725 139.777 187.672 139.939 187.672 140.138C187.672 140.422 187.776 140.636 187.983 140.781C188.191 140.926 188.455 140.999 188.776 140.999ZM194.925 133.273V142H193.382V133.273H194.925ZM204.299 135.672C204.259 135.3 204.092 135.01 203.796 134.803C203.504 134.595 203.123 134.491 202.654 134.491C202.325 134.491 202.042 134.541 201.806 134.641C201.57 134.74 201.39 134.875 201.265 135.045C201.14 135.216 201.076 135.411 201.073 135.629C201.073 135.811 201.114 135.969 201.197 136.102C201.282 136.236 201.397 136.349 201.542 136.443C201.687 136.534 201.847 136.611 202.023 136.673C202.2 136.736 202.377 136.788 202.556 136.831L203.374 137.036C203.704 137.112 204.021 137.216 204.325 137.347C204.631 137.477 204.906 137.642 205.147 137.841C205.391 138.04 205.585 138.28 205.727 138.561C205.869 138.842 205.94 139.172 205.94 139.55C205.94 140.061 205.809 140.511 205.548 140.901C205.286 141.287 204.908 141.589 204.414 141.808C203.923 142.024 203.327 142.132 202.629 142.132C201.95 142.132 201.36 142.027 200.86 141.817C200.363 141.607 199.974 141.3 199.692 140.896C199.414 140.493 199.263 140.001 199.241 139.422H200.796C200.819 139.726 200.913 139.979 201.077 140.18C201.242 140.382 201.457 140.533 201.721 140.632C201.988 140.732 202.286 140.781 202.616 140.781C202.96 140.781 203.261 140.73 203.519 140.628C203.781 140.523 203.985 140.378 204.133 140.193C204.281 140.006 204.356 139.787 204.359 139.537C204.356 139.31 204.289 139.122 204.158 138.974C204.028 138.824 203.844 138.699 203.609 138.599C203.376 138.497 203.103 138.406 202.79 138.327L201.798 138.071C201.079 137.886 200.511 137.607 200.093 137.232C199.678 136.854 199.471 136.352 199.471 135.727C199.471 135.213 199.61 134.763 199.888 134.376C200.17 133.99 200.552 133.69 201.035 133.477C201.518 133.261 202.065 133.153 202.675 133.153C203.295 133.153 203.837 133.261 204.303 133.477C204.772 133.69 205.14 133.987 205.407 134.368C205.674 134.746 205.812 135.18 205.82 135.672H204.299ZM210.549 135.455V136.648H206.787V135.455H210.549ZM207.716 133.886H209.258V140.031C209.258 140.239 209.289 140.398 209.352 140.509C209.417 140.616 209.502 140.69 209.608 140.73C209.713 140.77 209.829 140.79 209.957 140.79C210.054 140.79 210.142 140.783 210.221 140.768C210.304 140.754 210.366 140.741 210.409 140.73L210.669 141.936C210.586 141.964 210.468 141.996 210.315 142.03C210.164 142.064 209.98 142.084 209.761 142.089C209.375 142.101 209.027 142.043 208.717 141.915C208.407 141.784 208.162 141.582 207.98 141.31C207.801 141.037 207.713 140.696 207.716 140.287V133.886ZM216.011 139.247V135.455H217.554V142H216.058V140.837H215.99C215.842 141.203 215.599 141.503 215.261 141.736C214.926 141.969 214.513 142.085 214.021 142.085C213.592 142.085 213.213 141.99 212.884 141.8C212.557 141.607 212.301 141.327 212.116 140.96C211.932 140.591 211.839 140.145 211.839 139.622V135.455H213.382V139.384C213.382 139.798 213.496 140.128 213.723 140.372C213.95 140.616 214.249 140.739 214.618 140.739C214.845 140.739 215.065 140.683 215.278 140.572C215.491 140.462 215.666 140.297 215.803 140.078C215.942 139.857 216.011 139.58 216.011 139.247ZM221.569 142.115C221.055 142.115 220.595 141.983 220.189 141.719C219.782 141.455 219.461 141.071 219.225 140.568C218.99 140.065 218.872 139.455 218.872 138.736C218.872 138.009 218.991 137.395 219.23 136.895C219.471 136.392 219.797 136.013 220.206 135.757C220.615 135.499 221.071 135.369 221.574 135.369C221.957 135.369 222.272 135.435 222.52 135.565C222.767 135.693 222.963 135.848 223.108 136.03C223.252 136.209 223.365 136.378 223.444 136.537H223.508V133.273H225.055V142H223.538V140.969H223.444C223.365 141.128 223.25 141.297 223.099 141.476C222.949 141.652 222.75 141.803 222.502 141.928C222.255 142.053 221.944 142.115 221.569 142.115ZM222 140.849C222.326 140.849 222.605 140.761 222.835 140.585C223.065 140.406 223.24 140.158 223.359 139.839C223.478 139.521 223.538 139.151 223.538 138.727C223.538 138.304 223.478 137.936 223.359 137.624C223.243 137.311 223.069 137.068 222.839 136.895C222.612 136.722 222.332 136.635 222 136.635C221.656 136.635 221.369 136.724 221.139 136.903C220.909 137.082 220.735 137.33 220.619 137.645C220.502 137.96 220.444 138.321 220.444 138.727C220.444 139.136 220.502 139.501 220.619 139.822C220.738 140.141 220.913 140.392 221.143 140.577C221.376 140.759 221.662 140.849 222 140.849ZM226.699 142V135.455H228.241V142H226.699ZM227.474 134.526C227.23 134.526 227.02 134.445 226.844 134.283C226.668 134.118 226.58 133.92 226.58 133.69C226.58 133.457 226.668 133.26 226.844 133.098C227.02 132.933 227.23 132.851 227.474 132.851C227.722 132.851 227.932 132.933 228.105 133.098C228.281 133.26 228.369 133.457 228.369 133.69C228.369 133.92 228.281 134.118 228.105 134.283C227.932 134.445 227.722 134.526 227.474 134.526ZM232.683 142.128C232.044 142.128 231.49 141.987 231.021 141.706C230.552 141.425 230.189 141.031 229.93 140.526C229.674 140.02 229.547 139.429 229.547 138.753C229.547 138.077 229.674 137.484 229.93 136.976C230.189 136.467 230.552 136.072 231.021 135.791C231.49 135.51 232.044 135.369 232.683 135.369C233.322 135.369 233.876 135.51 234.345 135.791C234.814 136.072 235.176 136.467 235.431 136.976C235.69 137.484 235.819 138.077 235.819 138.753C235.819 139.429 235.69 140.02 235.431 140.526C235.176 141.031 234.814 141.425 234.345 141.706C233.876 141.987 233.322 142.128 232.683 142.128ZM232.691 140.892C233.038 140.892 233.328 140.797 233.561 140.607C233.794 140.413 233.967 140.155 234.081 139.831C234.197 139.507 234.255 139.146 234.255 138.749C234.255 138.348 234.197 137.986 234.081 137.662C233.967 137.335 233.794 137.075 233.561 136.882C233.328 136.689 233.038 136.592 232.691 136.592C232.336 136.592 232.041 136.689 231.805 136.882C231.572 137.075 231.397 137.335 231.281 137.662C231.167 137.986 231.11 138.348 231.11 138.749C231.11 139.146 231.167 139.507 231.281 139.831C231.397 140.155 231.572 140.413 231.805 140.607C232.041 140.797 232.336 140.892 232.691 140.892Z" fill="#FF4848" fill-opacity="0.6"/>
<rect x="271.5" y="40.5" width="64" height="21" rx="10.5" stroke="#FFC505"/>
<path d="M287.482 55H284.525V46.2727H287.542C288.408 46.2727 289.153 46.4474 289.775 46.7969C290.4 47.1435 290.88 47.642 291.215 48.2926C291.55 48.9432 291.718 49.7216 291.718 50.6278C291.718 51.5369 291.549 52.3182 291.211 52.9716C290.876 53.625 290.391 54.1264 289.758 54.4759C289.127 54.8253 288.369 55 287.482 55ZM286.106 53.6321H287.406C288.013 53.6321 288.521 53.5213 288.927 53.2997C289.333 53.0753 289.638 52.7415 289.843 52.2983C290.048 51.8523 290.15 51.2955 290.15 50.6278C290.15 49.9602 290.048 49.4062 289.843 48.9659C289.638 48.5227 289.336 48.1918 288.935 47.973C288.538 47.7514 288.043 47.6406 287.452 47.6406H286.106V53.6321ZM296.05 55.1278C295.393 55.1278 294.827 54.9915 294.349 54.7188C293.875 54.4432 293.51 54.054 293.254 53.5511C292.999 53.0455 292.871 52.4503 292.871 51.7656C292.871 51.0923 292.999 50.5014 293.254 49.9929C293.513 49.4815 293.874 49.0838 294.337 48.7997C294.8 48.5128 295.344 48.3693 295.969 48.3693C296.372 48.3693 296.753 48.4347 297.111 48.5653C297.472 48.6932 297.79 48.892 298.065 49.1619C298.344 49.4318 298.563 49.7756 298.722 50.1932C298.881 50.608 298.96 51.1023 298.96 51.6761V52.1491H293.595V51.1094H297.482C297.479 50.8139 297.415 50.5511 297.29 50.321C297.165 50.0881 296.99 49.9048 296.766 49.7713C296.544 49.6378 296.286 49.571 295.99 49.571C295.675 49.571 295.398 49.6477 295.159 49.8011C294.92 49.9517 294.734 50.1506 294.601 50.3977C294.47 50.642 294.403 50.9105 294.401 51.2031V52.1108C294.401 52.4915 294.47 52.8182 294.609 53.0909C294.749 53.3608 294.943 53.5682 295.193 53.7131C295.443 53.8551 295.736 53.9261 296.071 53.9261C296.295 53.9261 296.499 53.8949 296.68 53.8324C296.862 53.767 297.02 53.6719 297.153 53.5469C297.287 53.4219 297.388 53.267 297.456 53.0824L298.896 53.2443C298.805 53.625 298.632 53.9574 298.376 54.2415C298.124 54.5227 297.8 54.7415 297.405 54.8977C297.01 55.0511 296.558 55.1278 296.05 55.1278ZM305.439 50.1847L304.032 50.3381C303.993 50.196 303.923 50.0625 303.824 49.9375C303.727 49.8125 303.596 49.7116 303.431 49.6349C303.267 49.5582 303.065 49.5199 302.826 49.5199C302.505 49.5199 302.235 49.5895 302.017 49.7287C301.801 49.8679 301.694 50.0483 301.697 50.2699C301.694 50.4602 301.764 50.6151 301.906 50.7344C302.051 50.8537 302.289 50.9517 302.622 51.0284L303.738 51.267C304.358 51.4006 304.818 51.6122 305.119 51.902C305.423 52.1918 305.576 52.571 305.579 53.0398C305.576 53.4517 305.456 53.8153 305.217 54.1307C304.981 54.4432 304.653 54.6875 304.233 54.8636C303.812 55.0398 303.329 55.1278 302.784 55.1278C301.983 55.1278 301.338 54.9602 300.849 54.625C300.36 54.2869 300.069 53.8168 299.975 53.2145L301.48 53.0696C301.548 53.3651 301.693 53.5881 301.914 53.7386C302.136 53.8892 302.424 53.9645 302.779 53.9645C303.146 53.9645 303.44 53.8892 303.662 53.7386C303.886 53.5881 303.998 53.402 303.998 53.1804C303.998 52.9929 303.926 52.8381 303.781 52.7159C303.639 52.5937 303.417 52.5 303.116 52.4347L302 52.2003C301.372 52.0696 300.907 51.8494 300.606 51.5398C300.305 51.2273 300.156 50.8324 300.159 50.3551C300.156 49.9517 300.265 49.6023 300.487 49.3068C300.711 49.0085 301.022 48.7784 301.42 48.6165C301.821 48.4517 302.282 48.3693 302.805 48.3693C303.572 48.3693 304.176 48.5327 304.616 48.8594C305.059 49.1861 305.333 49.6278 305.439 50.1847ZM306.851 55V48.4545H308.394V55H306.851ZM307.627 47.5256C307.382 47.5256 307.172 47.4446 306.996 47.2827C306.82 47.1179 306.732 46.9205 306.732 46.6903C306.732 46.4574 306.82 46.2599 306.996 46.098C307.172 45.9332 307.382 45.8509 307.627 45.8509C307.874 45.8509 308.084 45.9332 308.257 46.098C308.434 46.2599 308.522 46.4574 308.522 46.6903C308.522 46.9205 308.434 47.1179 308.257 47.2827C308.084 47.4446 307.874 47.5256 307.627 47.5256ZM312.827 57.5909C312.273 57.5909 311.797 57.5156 311.399 57.3651C311.001 57.2173 310.682 57.0185 310.44 56.7685C310.199 56.5185 310.031 56.2415 309.938 55.9375L311.327 55.6009C311.389 55.7287 311.48 55.8551 311.599 55.9801C311.719 56.108 311.879 56.2131 312.081 56.2955C312.286 56.3807 312.543 56.4233 312.852 56.4233C313.29 56.4233 313.652 56.3168 313.939 56.1037C314.226 55.8935 314.369 55.5469 314.369 55.0639V53.8239H314.293C314.213 53.983 314.097 54.1463 313.943 54.3139C313.793 54.4815 313.592 54.6222 313.342 54.7358C313.095 54.8494 312.784 54.9062 312.409 54.9062C311.906 54.9062 311.45 54.7884 311.041 54.5526C310.635 54.3139 310.311 53.9588 310.07 53.4872C309.831 53.0128 309.712 52.419 309.712 51.706C309.712 50.9872 309.831 50.3807 310.07 49.8864C310.311 49.3892 310.636 49.0128 311.045 48.7571C311.455 48.4986 311.911 48.3693 312.413 48.3693C312.797 48.3693 313.112 48.4347 313.359 48.5653C313.609 48.6932 313.808 48.848 313.956 49.0298C314.104 49.2088 314.216 49.3778 314.293 49.5369H314.378V48.4545H315.899V55.1065C315.899 55.6662 315.766 56.1293 315.499 56.4957C315.232 56.8622 314.866 57.1364 314.403 57.3182C313.94 57.5 313.415 57.5909 312.827 57.5909ZM312.839 53.696C313.166 53.696 313.445 53.6165 313.675 53.4574C313.905 53.2983 314.08 53.0696 314.199 52.7713C314.318 52.473 314.378 52.1151 314.378 51.6974C314.378 51.2855 314.318 50.9247 314.199 50.6151C314.082 50.3054 313.909 50.0653 313.679 49.8949C313.452 49.7216 313.172 49.6349 312.839 49.6349C312.496 49.6349 312.209 49.7244 311.979 49.9034C311.749 50.0824 311.575 50.3281 311.459 50.6406C311.342 50.9503 311.284 51.3026 311.284 51.6974C311.284 52.098 311.342 52.4489 311.459 52.75C311.578 53.0483 311.753 53.2812 311.983 53.4489C312.216 53.6136 312.501 53.696 312.839 53.696ZM319.023 51.1648V55H317.48V48.4545H318.955V49.5668H319.031C319.182 49.2003 319.422 48.9091 319.751 48.6932C320.084 48.4773 320.494 48.3693 320.983 48.3693C321.435 48.3693 321.828 48.4659 322.163 48.6591C322.501 48.8523 322.763 49.1321 322.947 49.4986C323.135 49.8651 323.227 50.3097 323.224 50.8324V55H321.682V51.071C321.682 50.6335 321.568 50.2912 321.341 50.044C321.116 49.7969 320.805 49.6733 320.408 49.6733C320.138 49.6733 319.898 49.733 319.688 49.8523C319.48 49.9687 319.317 50.1378 319.197 50.3594C319.081 50.581 319.023 50.8494 319.023 51.1648Z" fill="#FFC505"/>
<rect x="301.5" y="69.5" width="59" height="21" rx="10.5" stroke="#FFC505" stroke-opacity="0.6"/>
<path d="M313.861 84V75.2727H319.452V76.598H315.442V78.9673H319.068V80.2926H315.442V84H313.861ZM320.824 84V77.4545H322.366V84H320.824ZM321.599 76.5256C321.355 76.5256 321.145 76.4446 320.969 76.2827C320.793 76.1179 320.705 75.9205 320.705 75.6903C320.705 75.4574 320.793 75.2599 320.969 75.098C321.145 74.9332 321.355 74.8509 321.599 74.8509C321.847 74.8509 322.057 74.9332 322.23 75.098C322.406 75.2599 322.494 75.4574 322.494 75.6903C322.494 75.9205 322.406 76.1179 322.23 76.2827C322.057 76.4446 321.847 76.5256 321.599 76.5256ZM326.799 86.5909C326.245 86.5909 325.77 86.5156 325.372 86.3651C324.974 86.2173 324.654 86.0185 324.413 85.7685C324.172 85.5185 324.004 85.2415 323.91 84.9375L325.299 84.6009C325.362 84.7287 325.453 84.8551 325.572 84.9801C325.691 85.108 325.852 85.2131 326.054 85.2955C326.258 85.3807 326.515 85.4233 326.825 85.4233C327.262 85.4233 327.625 85.3168 327.912 85.1037C328.199 84.8935 328.342 84.5469 328.342 84.0639V82.8239H328.265C328.186 82.983 328.069 83.1463 327.916 83.3139C327.765 83.4815 327.565 83.6222 327.315 83.7358C327.068 83.8494 326.757 83.9062 326.382 83.9062C325.879 83.9062 325.423 83.7884 325.014 83.5526C324.608 83.3139 324.284 82.9588 324.042 82.4872C323.804 82.0128 323.684 81.419 323.684 80.706C323.684 79.9872 323.804 79.3807 324.042 78.8864C324.284 78.3892 324.609 78.0128 325.018 77.7571C325.427 77.4986 325.883 77.3693 326.386 77.3693C326.77 77.3693 327.085 77.4347 327.332 77.5653C327.582 77.6932 327.781 77.848 327.929 78.0298C328.076 78.2088 328.189 78.3778 328.265 78.5369H328.35V77.4545H329.872V84.1065C329.872 84.6662 329.738 85.1293 329.471 85.4957C329.204 85.8622 328.839 86.1364 328.376 86.3182C327.913 86.5 327.387 86.5909 326.799 86.5909ZM326.812 82.696C327.139 82.696 327.417 82.6165 327.647 82.4574C327.877 82.2983 328.052 82.0696 328.172 81.7713C328.291 81.473 328.35 81.1151 328.35 80.6974C328.35 80.2855 328.291 79.9247 328.172 79.6151C328.055 79.3054 327.882 79.0653 327.652 78.8949C327.424 78.7216 327.145 78.6349 326.812 78.6349C326.468 78.6349 326.181 78.7244 325.951 78.9034C325.721 79.0824 325.548 79.3281 325.431 79.6406C325.315 79.9503 325.257 80.3026 325.257 80.6974C325.257 81.098 325.315 81.4489 325.431 81.75C325.551 82.0483 325.725 82.2812 325.956 82.4489C326.189 82.6136 326.474 82.696 326.812 82.696ZM331.453 84V77.4545H332.927V78.5668H333.004C333.14 78.1918 333.366 77.8991 333.681 77.6889C333.997 77.4759 334.373 77.3693 334.811 77.3693C335.254 77.3693 335.627 77.4773 335.931 77.6932C336.238 77.9062 336.454 78.1974 336.579 78.5668H336.647C336.792 78.2031 337.037 77.9134 337.38 77.6974C337.727 77.4787 338.137 77.3693 338.612 77.3693C339.214 77.3693 339.706 77.5597 340.086 77.9403C340.467 78.321 340.657 78.8764 340.657 79.6065V84H339.11V79.8452C339.11 79.4389 339.002 79.142 338.787 78.9545C338.571 78.7642 338.306 78.669 337.994 78.669C337.622 78.669 337.331 78.7855 337.12 79.0185C336.913 79.2486 336.809 79.5483 336.809 79.9176V84H335.297V79.7812C335.297 79.4432 335.194 79.1733 334.99 78.9716C334.788 78.7699 334.524 78.669 334.197 78.669C333.975 78.669 333.774 78.7259 333.592 78.8395C333.41 78.9503 333.265 79.108 333.157 79.3125C333.049 79.5142 332.995 79.75 332.995 80.0199V84H331.453ZM344.106 84.1321C343.691 84.1321 343.317 84.0582 342.985 83.9105C342.656 83.7599 342.394 83.5384 342.201 83.2457C342.011 82.9531 341.915 82.5923 341.915 82.1634C341.915 81.794 341.984 81.4886 342.12 81.2472C342.256 81.0057 342.442 80.8125 342.678 80.6676C342.914 80.5227 343.18 80.4134 343.475 80.3395C343.773 80.2628 344.082 80.2074 344.4 80.1733C344.783 80.1335 345.094 80.098 345.333 80.0668C345.572 80.0327 345.745 79.9815 345.853 79.9134C345.964 79.8423 346.019 79.733 346.019 79.5852V79.5597C346.019 79.2386 345.924 78.9901 345.734 78.8139C345.543 78.6378 345.269 78.5497 344.911 78.5497C344.533 78.5497 344.234 78.6321 344.012 78.7969C343.793 78.9616 343.646 79.1562 343.569 79.3807L342.129 79.1761C342.242 78.7784 342.43 78.446 342.691 78.179C342.952 77.9091 343.272 77.7074 343.65 77.5739C344.028 77.4375 344.445 77.3693 344.903 77.3693C345.218 77.3693 345.532 77.4062 345.844 77.4801C346.157 77.554 346.442 77.6761 346.701 77.8466C346.96 78.0142 347.167 78.2429 347.323 78.5327C347.482 78.8224 347.562 79.1847 347.562 79.6193V84H346.079V83.1009H346.028C345.934 83.2827 345.802 83.4531 345.631 83.6122C345.464 83.7685 345.252 83.8949 344.996 83.9915C344.744 84.0852 344.447 84.1321 344.106 84.1321ZM344.506 82.9986C344.816 82.9986 345.085 82.9375 345.312 82.8153C345.539 82.6903 345.714 82.5256 345.836 82.321C345.961 82.1165 346.023 81.8935 346.023 81.652V80.8807C345.975 80.9205 345.893 80.9574 345.776 80.9915C345.663 81.0256 345.535 81.0554 345.393 81.081C345.251 81.1065 345.11 81.1293 344.971 81.1491C344.832 81.169 344.711 81.1861 344.609 81.2003C344.379 81.2315 344.173 81.2827 343.991 81.3537C343.809 81.4247 343.665 81.5241 343.56 81.652C343.455 81.777 343.403 81.9389 343.403 82.1378C343.403 82.4219 343.506 82.6364 343.714 82.7812C343.921 82.9261 344.185 82.9986 344.506 82.9986Z" fill="#FFC505" fill-opacity="0.6"/>
<rect x="301.5" y="98.5" width="36" height="21" rx="10.5" stroke="#FFC505" stroke-opacity="0.6"/>
<path d="M319.362 104.273H320.943V109.974C320.943 110.599 320.795 111.149 320.5 111.624C320.207 112.098 319.795 112.469 319.264 112.736C318.733 113 318.112 113.132 317.402 113.132C316.689 113.132 316.067 113 315.536 112.736C315.004 112.469 314.592 112.098 314.3 111.624C314.007 111.149 313.861 110.599 313.861 109.974V104.273H315.442V109.842C315.442 110.206 315.521 110.53 315.68 110.814C315.842 111.098 316.07 111.321 316.362 111.483C316.655 111.642 317.001 111.722 317.402 111.722C317.803 111.722 318.149 111.642 318.442 111.483C318.737 111.321 318.964 111.098 319.124 110.814C319.283 110.53 319.362 110.206 319.362 109.842V104.273ZM324.243 104.273V113H322.662V104.273H324.243Z" fill="#FFC505" fill-opacity="0.6"/>
<rect x="301.5" y="127.5" width="60" height="21" rx="10.5" stroke="#FFC505" stroke-opacity="0.6"/>
<path d="M321.331 136.217H319.737C319.692 135.956 319.608 135.724 319.486 135.523C319.364 135.318 319.212 135.145 319.03 135.003C318.848 134.861 318.641 134.754 318.408 134.683C318.178 134.609 317.929 134.572 317.662 134.572C317.188 134.572 316.767 134.692 316.401 134.93C316.034 135.166 315.747 135.513 315.54 135.97C315.332 136.425 315.229 136.98 315.229 137.636C315.229 138.304 315.332 138.866 315.54 139.324C315.75 139.778 316.037 140.122 316.401 140.355C316.767 140.585 317.186 140.7 317.658 140.7C317.919 140.7 318.163 140.666 318.391 140.598C318.621 140.527 318.827 140.423 319.009 140.287C319.193 140.151 319.348 139.983 319.473 139.784C319.601 139.585 319.689 139.358 319.737 139.102L321.331 139.111C321.271 139.526 321.142 139.915 320.943 140.278C320.747 140.642 320.49 140.963 320.172 141.241C319.854 141.517 319.482 141.733 319.055 141.889C318.629 142.043 318.156 142.119 317.636 142.119C316.869 142.119 316.185 141.942 315.582 141.587C314.98 141.232 314.506 140.719 314.159 140.048C313.813 139.378 313.639 138.574 313.639 137.636C313.639 136.696 313.814 135.892 314.163 135.224C314.513 134.554 314.989 134.041 315.591 133.686C316.193 133.331 316.875 133.153 317.636 133.153C318.122 133.153 318.574 133.222 318.991 133.358C319.409 133.494 319.781 133.695 320.108 133.959C320.435 134.22 320.703 134.541 320.913 134.922C321.126 135.3 321.266 135.732 321.331 136.217ZM324.594 142.132C324.179 142.132 323.806 142.058 323.473 141.911C323.144 141.76 322.882 141.538 322.689 141.246C322.499 140.953 322.404 140.592 322.404 140.163C322.404 139.794 322.472 139.489 322.608 139.247C322.745 139.006 322.931 138.812 323.167 138.668C323.402 138.523 323.668 138.413 323.963 138.339C324.262 138.263 324.57 138.207 324.888 138.173C325.272 138.134 325.583 138.098 325.821 138.067C326.06 138.033 326.233 137.982 326.341 137.913C326.452 137.842 326.507 137.733 326.507 137.585V137.56C326.507 137.239 326.412 136.99 326.222 136.814C326.032 136.638 325.757 136.55 325.4 136.55C325.022 136.55 324.722 136.632 324.5 136.797C324.282 136.962 324.134 137.156 324.057 137.381L322.617 137.176C322.73 136.778 322.918 136.446 323.179 136.179C323.441 135.909 323.76 135.707 324.138 135.574C324.516 135.438 324.934 135.369 325.391 135.369C325.706 135.369 326.02 135.406 326.333 135.48C326.645 135.554 326.931 135.676 327.189 135.847C327.448 136.014 327.655 136.243 327.811 136.533C327.971 136.822 328.05 137.185 328.05 137.619V142H326.567V141.101H326.516C326.422 141.283 326.29 141.453 326.12 141.612C325.952 141.768 325.74 141.895 325.485 141.991C325.232 142.085 324.935 142.132 324.594 142.132ZM324.995 140.999C325.304 140.999 325.573 140.937 325.8 140.815C326.027 140.69 326.202 140.526 326.324 140.321C326.449 140.116 326.512 139.893 326.512 139.652V138.881C326.463 138.92 326.381 138.957 326.265 138.991C326.151 139.026 326.023 139.055 325.881 139.081C325.739 139.107 325.598 139.129 325.459 139.149C325.32 139.169 325.199 139.186 325.097 139.2C324.867 139.232 324.661 139.283 324.479 139.354C324.297 139.425 324.154 139.524 324.049 139.652C323.944 139.777 323.891 139.939 323.891 140.138C323.891 140.422 323.995 140.636 324.202 140.781C324.409 140.926 324.674 140.999 324.995 140.999ZM331.144 138.165V142H329.601V135.455H331.076V136.567H331.152C331.303 136.2 331.543 135.909 331.873 135.693C332.205 135.477 332.615 135.369 333.104 135.369C333.556 135.369 333.949 135.466 334.284 135.659C334.623 135.852 334.884 136.132 335.069 136.499C335.256 136.865 335.348 137.31 335.346 137.832V142H333.803V138.071C333.803 137.634 333.689 137.291 333.462 137.044C333.238 136.797 332.926 136.673 332.529 136.673C332.259 136.673 332.019 136.733 331.809 136.852C331.601 136.969 331.438 137.138 331.319 137.359C331.202 137.581 331.144 137.849 331.144 138.165ZM342.526 135.455L340.195 142H338.49L336.159 135.455H337.804L339.309 140.317H339.377L340.885 135.455H342.526ZM345.289 142.132C344.875 142.132 344.501 142.058 344.169 141.911C343.839 141.76 343.578 141.538 343.385 141.246C343.194 140.953 343.099 140.592 343.099 140.163C343.099 139.794 343.167 139.489 343.304 139.247C343.44 139.006 343.626 138.812 343.862 138.668C344.098 138.523 344.363 138.413 344.659 138.339C344.957 138.263 345.265 138.207 345.583 138.173C345.967 138.134 346.278 138.098 346.517 138.067C346.755 138.033 346.929 137.982 347.037 137.913C347.147 137.842 347.203 137.733 347.203 137.585V137.56C347.203 137.239 347.108 136.99 346.917 136.814C346.727 136.638 346.453 136.55 346.095 136.55C345.717 136.55 345.417 136.632 345.196 136.797C344.977 136.962 344.829 137.156 344.752 137.381L343.312 137.176C343.426 136.778 343.613 136.446 343.875 136.179C344.136 135.909 344.456 135.707 344.833 135.574C345.211 135.438 345.629 135.369 346.086 135.369C346.402 135.369 346.716 135.406 347.028 135.48C347.341 135.554 347.626 135.676 347.885 135.847C348.143 136.014 348.35 136.243 348.507 136.533C348.666 136.822 348.745 137.185 348.745 137.619V142H347.262V141.101H347.211C347.118 141.283 346.985 141.453 346.815 141.612C346.647 141.768 346.436 141.895 346.18 141.991C345.927 142.085 345.63 142.132 345.289 142.132ZM345.69 140.999C346 140.999 346.268 140.937 346.495 140.815C346.723 140.69 346.897 140.526 347.02 140.321C347.145 140.116 347.207 139.893 347.207 139.652V138.881C347.159 138.92 347.076 138.957 346.96 138.991C346.846 139.026 346.718 139.055 346.576 139.081C346.434 139.107 346.294 139.129 346.154 139.149C346.015 139.169 345.895 139.186 345.792 139.2C345.562 139.232 345.356 139.283 345.174 139.354C344.993 139.425 344.849 139.524 344.744 139.652C344.639 139.777 344.586 139.939 344.586 140.138C344.586 140.422 344.69 140.636 344.897 140.781C345.105 140.926 345.369 140.999 345.69 140.999Z" fill="#FFC505" fill-opacity="0.6"/>
</svg>
