<svg width="360" height="291" viewBox="0 0 360 291" fill="none" xmlns="http://www.w3.org/2000/svg">
<g filter="url(#filter0_d_156_118)">
<path d="M156 189C164.837 189 172 196.163 172 205V261C172 269.837 164.837 277 156 277H33C24.1634 277 17 269.837 17 261V205C17 196.163 24.1634 189 33 189H156ZM180 277H179V13H180V277ZM327 101C335.837 101 343 108.163 343 117V173C343 181.837 335.837 189 327 189H204C195.163 189 188 181.837 188 173V117C188 108.163 195.163 101 204 101H327ZM156 13C164.837 13 172 20.1634 172 29V85C172 93.8366 164.837 101 156 101H33C24.1634 101 17 93.8366 17 85V29C17 20.1634 24.1634 13 33 13H156Z" fill="url(#paint0_linear_156_118)" fill-opacity="0.1"/>
</g>
<defs>
<filter id="filter0_d_156_118" x="-4" y="0" width="368" height="299" filterUnits="userSpaceOnUse" color-interpolation-filters="sRGB">
<feFlood flood-opacity="0" result="BackgroundImageFix"/>
<feColorMatrix in="SourceAlpha" type="matrix" values="0 0 0 0 0 0 0 0 0 0 0 0 0 0 0 0 0 0 127 0" result="hardAlpha"/>
<feOffset dy="4"/>
<feGaussianBlur stdDeviation="2"/>
<feComposite in2="hardAlpha" operator="out"/>
<feColorMatrix type="matrix" values="0 0 0 0 0 0 0 0 0 0 0 0 0 0 0 0 0 0 0.25 0"/>
<feBlend mode="normal" in2="BackgroundImageFix" result="effect1_dropShadow_156_118"/>
<feBlend mode="normal" in="SourceGraphic" in2="effect1_dropShadow_156_118" result="shape"/>
</filter>
<linearGradient id="paint0_linear_156_118" x1="180" y1="13" x2="180" y2="277" gradientUnits="userSpaceOnUse">
<stop stop-color="#D9D9D9" stop-opacity="0"/>
<stop offset="0.220856" stop-color="#D9D9D9" stop-opacity="0.5"/>
<stop offset="0.759985" stop-color="#D9D9D9" stop-opacity="0.5"/>
<stop offset="1" stop-color="#D9D9D9" stop-opacity="0"/>
</linearGradient>
</defs>
</svg>
